<?xml version="1.0" encoding="UTF-8"?>
<svg width="48px" height="44px" viewBox="0 0 48 44" version="1.1" xmlns="http://www.w3.org/2000/svg" xmlns:xlink="http://www.w3.org/1999/xlink">
    <!-- Generator: Sketch 53.2 (72643) - https://sketchapp.com -->
    <title></title>
    <desc>Created with Sketch.</desc>
    <g id="Page-1" stroke="none" stroke-width="1" fill="none" fill-rule="evenodd">
        <g id="Artboard" transform="translate(-433.000000, -187.000000)" fill="#D01616" fill-rule="nonzero">
            <path d="M456.999998,230.184 L453.639999,227.104 C448.56264,222.511977 445.053342,219.226677 443.111999,217.248001 C439.93865,214.037318 437.642673,211.181347 436.224,208.680001 C434.543991,205.842654 433.704,203.005349 433.704,200.168002 C433.704,197.81599 434.273327,195.660012 435.412,193.700002 C436.550672,191.739992 438.090656,190.200008 440.031999,189.080002 C441.973342,187.959997 444.138654,187.400002 446.527999,187.400002 C448.506675,187.400002 450.429323,187.847998 452.295999,188.744002 C454.162675,189.640007 455.730659,190.834661 456.999998,192.328002 C458.269338,190.834661 459.837322,189.640007 461.703998,188.744002 C463.570674,187.847998 465.511988,187.400002 467.527998,187.400002 C469.880009,187.400002 472.035988,187.959997 473.995997,189.080002 C475.956007,190.200008 477.495992,191.739992 478.615997,193.700002 C479.736003,195.660012 480.295997,197.81599 480.295997,200.168002 C480.295997,203.005349 479.474672,205.86132 477.831997,208.736001 C476.37599,211.237347 474.061347,214.093318 470.887998,217.304001 C468.909321,219.357344 465.41869,222.661311 460.415998,227.216 L456.999998,230.184 Z" id=""></path>
        </g>
    </g>
</svg>