<?xml version="1.0" encoding="UTF-8"?>
<svg width="14px" height="14px" viewBox="0 0 14 14" version="1.1" xmlns="http://www.w3.org/2000/svg" xmlns:xlink="http://www.w3.org/1999/xlink">
    <!-- Generator: Sketch 52.5 (67469) - http://www.bohemiancoding.com/sketch -->
    <title>Group 3</title>
    <desc>Created with Sketch.</desc>
    <g id="Page-1" stroke="none" stroke-width="1" fill="none" fill-rule="evenodd">
        <g id="Desktop-HD-Copy-2" transform="translate(-132.000000, -379.000000)" fill-rule="nonzero">
            <g id="Group-10" transform="translate(120.000000, 366.000000)">
                <g id="Group-3" transform="translate(12.000000, 13.000000)">
                    <circle id="Oval" stroke="#000000" stroke-width="1.5" cx="6" cy="6" r="5.25"></circle>
                    <path d="M9.52120188,10.5822604 L13.0578844,10.5840716 C13.4721601,10.5842838 13.8078843,10.92018 13.8078843,11.3344557 L13.8078843,11.3344557 C13.8078843,11.7484572 13.4722698,12.0840717 13.0582683,12.0840717 C13.0581404,12.0840717 13.0580124,12.0840717 13.0578844,12.0840716 L9.52120188,12.0822604 C9.10692626,12.0820482 8.77120198,11.7461519 8.77120198,11.3318763 L8.77120198,11.3318763 C8.77120198,10.9178748 9.10681649,10.5822603 9.52081798,10.5822603 C9.52094595,10.5822603 9.52107391,10.5822603 9.52120188,10.5822604 Z" id="Rectangle" fill="#000000" transform="translate(11.289543, 11.333166) rotate(46.000000) translate(-11.289543, -11.333166) "></path>
                </g>
            </g>
        </g>
    </g>
</svg>